<?xml version="1.0" encoding="UTF-8"?>
<svg id="Layer_2" data-name="Layer 2" xmlns="http://www.w3.org/2000/svg" viewBox="0 0 660.07 236.76">
  <g>
    <path d="M154.88,28.02l7,4c13.05,8.92,27.78,16.61,41.26,24.96.61.42,1.74,2.04,1.74,2.54v27c0,.26-1.56,1.87-2.39,1.42L106.54,30.19,27.09,79.73l.81,59.78c6.68,48.17,65.24,86.18,110.66,61.69,16.15-8.71,31.92-20.9,40.83-37.17h27.5c-5.67,23.98-23.87,41.51-44.08,54.42-42.57,27.18-80.45,23.4-120.25-6.58C-19.52,165.09,6.32,94.69.83,27.47c-.22-1.02.72-3.45,1.55-3.45h24c.11,0,1.5,1.39,1.5,1.5v19.5c1.46.26,2.45-.25,3.72-.79,4.63-1.95,15.41-9.14,20.28-12.21l7-4C74.18,17.91,90.64,9.28,106.46,0c2.79-.15,42.78,24.42,48.42,28.02Z" style="fill: #0041d9;"/>
    <path d="M161.88,158.02c-37.13,61.74-131.46,24.46-117.72-46.22,11.56-59.49,93.51-71.74,120.47-17.26-.25,3.01-20.1,8.44-23.26,11.25-24.45-40.51-85.1-12.67-69.26,32.51,10.75,30.64,54.34,32.62,68.86,3.77,3.76.82,6.68,3.23,9.91,4.96l6.57,2.69c6.34,1.9,7.81,4.67,4.43,8.31Z" style="fill: #0041d9;"/>
  </g>
  <g>
    <path d="M275.67,62.52c0-9.7-5.45-12.93-15.65-12.93-11.41.1-16.87,5.05-16.87,21.01s5.76,22.32,17.57,22.32c10.5,0,15.15-5.05,15.15-12.73v-1.72c3.23.1,6.36.1,9.49.1s6.56,0,9.9-.1c-.1,1.01,0,1.92,0,2.93,0,17.47-11.92,29.09-34.44,29.09-23.63,0-37.87-12.42-37.87-39.39,0-24.64,12.73-38.78,37.87-38.78s34.14,12.32,34.14,26.97c0,1.52-.1,3.13-.2,4.75-3.23-.1-6.56-.1-9.7-.1s-6.16,0-9.39.1v-1.52Z"/>
    <path d="M305.97,109.28c.3-11.41.3-24.24.3-38.18,0-14.95,0-27.17-.3-40h18.89c-.3,12.12-.3,23.63-.3,40.8,0,15.25,0,25.45.3,37.37h-18.89Z"/>
    <path d="M347.38,43.33c-9.59,0-11.11-2.73-11.11-5.76,0-3.23,1.72-5.35,11.11-5.35s11.01,2.12,11.01,5.35c0,3.03-1.52,5.76-11.01,5.76ZM337.99,109.28c.2-9.7.2-19.49.2-31.71,0-11.51-.1-20.1-.2-29.49h18.68c-.3,9.49-.3,17.88-.3,30,0,13.84,0,21.71.3,31.21h-18.68Z"/>
    <path d="M428.48,86.26c0,14.04-6.56,24.34-30.5,24.34-20.1,0-31.41-11.01-31.41-32.02s11.21-31.81,31.81-31.81c18.58,0,29.79,6.36,29.79,24.34v1.01c-2.12-.1-5.45-.2-8.79-.2s-6.26.1-8.28.2v-.4c-.1-6.67-2.93-8.89-12.62-8.89s-14.04,3.64-14.04,15.55c0,12.52,3.94,16.16,14.14,16.16,9.19,0,12.42-3.03,12.52-8.28v-.61c2.32.3,5.35.3,8.38.3,3.23,0,6.56-.1,8.99-.3v.61Z"/>
    <path d="M499.78,48.08c-5.96,7.57-17.37,23.23-24.44,30.91,7.58,7.88,16.46,21.61,25.35,30.3h-19.59c-2.73,0-3.94-.5-5.15-2.22-5.25-7.17-12.62-16.97-18.58-22.93h-.4c0,9.19,0,16.56.2,25.15h-18.89c.2-11.51.2-24.24.2-38.68s.2-26.87-.2-39.49h18.99c-.4,12.32-.3,23.53-.3,40.9v4.24h.2c2.83-3.13,5.76-6.36,8.18-9.39,6.46-8.08,10.61-14.14,13.33-18.79h21.11Z"/>
    <path d="M226.89,203.28c.3-11.01.3-21.82.3-37.87s0-26.97-.3-37.87h20.1c-.3,10.71-.3,21.61-.3,37.77s0,26.87.3,37.98h-20.1Z"/>
    <path d="M337.58,203.28c.3-8.89.4-21.61.4-36.86,0-6.67-2.83-9.8-9.09-9.8s-11.92,3.54-11.92,13.03c0,17.78-.1,26.26.3,33.63h-17.78c.3-8.89.4-19.29.4-36.86,0-6.36-2.52-9.8-8.99-9.8s-11.92,3.54-11.92,13.03c0,16.36,0,27.37.2,33.63h-17.98c.3-8.69.2-17.37.2-30.2s0-22.12-.2-31.01h18.38c-.1,3.53-.2,6.26-.5,9.7l.61.1c3.54-7.37,9.49-10.71,18.28-10.71s15.76,3.94,17.78,11.21l.81.1c3.64-8.48,11.01-11.31,19.59-11.31,11.31,0,19.19,6.36,19.19,18.58,0,9.39-.2,16.16-.2,23.84,0,6.77.1,13.84.3,19.7h-17.88Z"/>
    <path d="M396.16,204.6c-20.2,0-32.02-12.73-32.02-32.92s12.73-31.01,32.02-31.01,32.42,10.71,32.42,31.01-12.12,32.92-32.42,32.92ZM420.2,126.02c-5.66,1.21-31.41,8.79-37.27,10.81-.81-2.12-1.92-4.14-2.83-5.86,5.15-2.42,30.1-14.04,34.95-16.66,1.31,3.33,3.43,8.18,5.15,11.72ZM396.16,156.62c-8.69,0-14.24,4.24-14.24,15.65s5.45,16.46,14.24,16.46,14.24-5.35,14.24-16.46-5.45-15.65-14.24-15.65Z"/>
    <path d="M497.16,142.08c-5.55,15.55-17.57,51.41-20.81,61.21-2.93-.1-6.46-.2-11.61-.2-5.76,0-10.3,0-12.12.2-3.53-9.8-15.55-45.25-21.21-61.21h20.7c1.21,5.55,5.55,19.49,8.48,31.11,1.72,6.16,2.93,11.31,3.84,15.35h1.01c.81-4.04,2.12-9.19,3.94-15.45,2.93-11.82,7.17-26.06,8.28-31.01h19.49Z"/>
    <path d="M529.48,204.6c-19.49,0-31.21-10.3-31.21-31.81s12.22-32.02,31.61-32.02c20.6,0,27.57,10.2,27.57,25.75,0,4.95-.2,8.48-.4,11.31-5.45-.2-14.64-.2-23.33-.2-6.77,0-13.43.1-17.98.1.81,10.2,5.05,13.43,14.04,13.43,8.48,0,10.91-2.63,11.11-7.37,2.32.2,5.05.3,8.38.3s6.06-.1,8.18-.3c.3,13.33-5.25,20.81-27.98,20.81ZM515.85,168.04c8.28.3,17.27.2,24.74.1.1-.81.1-1.72.1-2.83,0-7.98-3.23-11.21-11.51-11.21s-12.32,2.83-13.33,13.94Z"/>
    <path d="M578.27,137.33c-9.59,0-11.11-2.73-11.11-5.76,0-3.23,1.72-5.35,11.11-5.35s11.01,2.12,11.01,5.35c0,3.03-1.51,5.76-11.01,5.76ZM568.87,203.28c.2-9.7.2-19.49.2-31.71,0-11.51-.1-20.1-.2-29.49h18.68c-.3,9.49-.3,17.88-.3,30,0,13.84,0,21.71.3,31.21h-18.68Z"/>
    <path d="M614.93,183.99c0,3.94,2.83,6.06,12.42,6.06,8.28,0,10.81-1.62,10.81-4.85,0-3.03-2.53-5.05-15.25-6.16-19.79-2.12-24.95-9.29-24.95-19.59,0-12.42,8.89-18.58,28.89-18.58s28.08,6.26,28.08,18.38c0,.91-.1,1.82-.2,2.93-2.12-.2-5.66-.3-8.99-.3-3.03,0-6.06.1-7.88.2v-1.01c0-3.84-2.53-5.76-11.31-5.76s-10.81,1.62-10.81,4.44c0,2.63,1.82,4.85,15.76,6.36,18.58,2.12,24.34,7.98,24.34,19.39s-7.78,19.09-28.68,19.09c-22.62,0-29.39-7.37-29.39-18.99,0-.81.1-1.82.1-2.73,2.12.2,5.35.4,8.99.4,2.93,0,5.96-.1,8.08-.3v1.01Z"/>
  </g>
</svg>