<?xml version="1.0" encoding="UTF-8"?>
<svg id="Layer_2" data-name="Layer 2" xmlns="http://www.w3.org/2000/svg" viewBox="0 0 1384.5 236.76">
  <g id="Layer_2-2" data-name="Layer 2">
    <g>
      <g>
        <path d="M154.88,28.02l7,4c13.05,8.92,27.78,16.61,41.26,24.96.61.42,1.74,2.04,1.74,2.54v27c0,.26-1.56,1.87-2.39,1.42L106.54,30.19,27.09,79.73l.81,59.78c6.68,48.17,65.24,86.18,110.66,61.69,16.15-8.71,31.92-20.9,40.83-37.17h27.5c-5.67,23.98-23.87,41.51-44.08,54.42-42.57,27.18-80.45,23.4-120.25-6.58C-19.52,165.09,6.32,94.69.83,27.47c-.22-1.02.72-3.45,1.55-3.45h24c.11,0,1.5,1.39,1.5,1.5v19.5c1.46.26,2.45-.25,3.72-.79,4.63-1.95,15.41-9.14,20.28-12.21l7-4C74.18,17.91,90.64,9.28,106.46,0c2.79-.15,42.78,24.42,48.42,28.02Z" style="fill: #0041d9;"/>
        <path d="M161.88,158.02c-37.13,61.74-131.46,24.46-117.72-46.22,11.56-59.49,93.51-71.74,120.47-17.26-.25,3.01-20.1,8.44-23.26,11.25-24.45-40.51-85.1-12.67-69.26,32.51,10.75,30.64,54.34,32.62,68.86,3.77,3.76.82,6.68,3.23,9.91,4.96l6.57,2.69c6.34,1.9,7.81,4.67,4.43,8.31Z" style="fill: #0041d9;"/>
      </g>
      <g>
        <path d="M317.17,106.09c0-14.98-8.42-19.97-24.18-19.97-17.63.16-26.05,7.8-26.05,32.45s8.89,34.48,27.14,34.48c16.22,0,23.4-7.8,23.4-19.66v-2.65c4.99.16,9.83.16,14.66.16s10.14,0,15.29-.16c-.16,1.56,0,2.96,0,4.52,0,26.99-18.41,44.93-53.2,44.93-36.51,0-58.5-19.19-58.5-60.84,0-38.07,19.66-59.91,58.5-59.91s52.73,19.03,52.73,41.65c0,2.34-.16,4.84-.31,7.33-4.99-.16-10.14-.16-14.98-.16s-9.52,0-14.51.16v-2.34Z"/>
        <path d="M363.96,178.32c.47-17.63.47-37.44.47-58.97,0-23.09,0-41.96-.47-61.78h29.17c-.47,18.72-.47,36.51-.47,63.03,0,23.56,0,39.31.47,57.72h-29.17Z"/>
        <path d="M427.92,76.45c-14.82,0-17.16-4.21-17.16-8.89,0-4.99,2.65-8.27,17.16-8.27s17,3.28,17,8.27c0,4.68-2.34,8.89-17,8.89ZM413.41,178.32c.31-14.98.31-30.11.31-48.99,0-17.78-.16-31.04-.31-45.55h28.86c-.47,14.67-.47,27.61-.47,46.33,0,21.37,0,33.54.47,48.21h-28.86Z"/>
        <path d="M553.19,142.75c0,21.68-10.14,37.6-47.11,37.6-31.05,0-48.52-17-48.52-49.45s17.32-49.14,49.14-49.14c28.71,0,46.02,9.83,46.02,37.6v1.56c-3.28-.16-8.42-.31-13.57-.31s-9.67.16-12.79.31v-.62c-.16-10.3-4.52-13.73-19.5-13.73s-21.69,5.62-21.69,24.02c0,19.34,6.08,24.96,21.84,24.96,14.2,0,19.19-4.68,19.34-12.79v-.94c3.59.47,8.27.47,12.95.47,4.99,0,10.14-.16,13.88-.47v.94Z"/>
        <path d="M663.33,83.78c-9.2,11.7-26.83,35.88-37.75,47.74,11.7,12.17,25.43,33.38,39.16,46.8h-30.26c-4.21,0-6.08-.78-7.96-3.43-8.11-11.08-19.5-26.21-28.71-35.41h-.62c0,14.2,0,25.58.31,38.85h-29.17c.31-17.79.31-37.44.31-59.75s.31-41.5-.31-61h29.33c-.62,19.03-.47,36.35-.47,63.18v6.55h.31c4.37-4.84,8.89-9.83,12.64-14.51,9.98-12.48,16.38-21.84,20.59-29.02h32.61Z"/>
        <path d="M715.42,178.32c.47-17,.47-33.7.47-58.5s0-41.65-.47-58.5h31.04c-.47,16.54-.47,33.39-.47,58.35s0,41.5.47,58.66h-31.04Z"/>
        <path d="M886.4,178.32c.47-13.73.62-33.39.62-56.94,0-10.3-4.37-15.13-14.04-15.13s-18.41,5.46-18.41,20.12c0,27.46-.16,40.56.47,51.95h-27.46c.47-13.73.62-29.8.62-56.94,0-9.83-3.9-15.13-13.88-15.13s-18.41,5.46-18.41,20.12c0,25.27,0,42.28.31,51.95h-27.77c.47-13.42.31-26.83.31-46.65s0-34.17-.31-47.89h28.39c-.16,5.46-.31,9.67-.78,14.98l.94.16c5.46-11.39,14.66-16.54,28.24-16.54s24.34,6.08,27.46,17.32l1.25.16c5.62-13.1,17-17.47,30.26-17.47,17.47,0,29.64,9.83,29.64,28.71,0,14.51-.31,24.96-.31,36.82,0,10.45.16,21.37.47,30.42h-27.61Z"/>
        <path d="M976.88,180.35c-31.2,0-49.45-19.66-49.45-50.86s19.66-47.89,49.45-47.89,50.08,16.54,50.08,47.89-18.72,50.86-50.08,50.86ZM1014.01,58.98c-8.74,1.87-48.52,13.57-57.57,16.69-1.25-3.28-2.96-6.4-4.37-9.05,7.96-3.74,46.49-21.68,53.98-25.74,2.03,5.15,5.3,12.64,7.96,18.1ZM976.88,106.25c-13.42,0-22,6.55-22,24.18s8.42,25.43,22,25.43,22-8.27,22-25.43-8.42-24.18-22-24.18Z"/>
        <path d="M1132.88,83.78c-8.58,24.03-27.15,79.41-32.14,94.54-4.52-.16-9.98-.31-17.94-.31-8.89,0-15.91,0-18.72.31-5.46-15.13-24.03-69.89-32.76-94.54h31.98c1.87,8.58,8.58,30.11,13.1,48.05,2.65,9.52,4.52,17.47,5.93,23.71h1.56c1.25-6.24,3.28-14.2,6.08-23.87,4.52-18.25,11.08-40.25,12.79-47.89h30.11Z"/>
        <path d="M1182.8,180.35c-30.11,0-48.21-15.91-48.21-49.14s18.88-49.45,48.83-49.45c31.83,0,42.59,15.76,42.59,39.78,0,7.64-.31,13.1-.62,17.47-8.42-.31-22.62-.31-36.04-.31-10.45,0-20.75.16-27.77.16,1.25,15.76,7.8,20.75,21.68,20.75,13.11,0,16.85-4.06,17.16-11.39,3.59.31,7.8.47,12.95.47s9.36-.16,12.64-.47c.47,20.59-8.11,32.14-43.21,32.14ZM1161.74,123.88c12.79.47,26.68.31,38.22.16.16-1.25.16-2.65.16-4.37,0-12.32-4.99-17.32-17.79-17.32s-19.03,4.37-20.59,21.53Z"/>
        <path d="M1258.15,76.45c-14.82,0-17.16-4.21-17.16-8.89,0-4.99,2.65-8.27,17.16-8.27s17,3.28,17,8.27c0,4.68-2.34,8.89-17,8.89ZM1243.64,178.32c.31-14.98.31-30.11.31-48.99,0-17.78-.16-31.04-.31-45.55h28.86c-.47,14.67-.47,27.61-.47,46.33,0,21.37,0,33.54.47,48.21h-28.86Z"/>
        <path d="M1314.77,148.53c0,6.08,4.37,9.36,19.19,9.36,12.79,0,16.69-2.5,16.69-7.49,0-4.68-3.9-7.8-23.56-9.52-30.58-3.28-38.53-14.35-38.53-30.27,0-19.19,13.73-28.71,44.62-28.71s43.37,9.67,43.37,28.39c0,1.4-.16,2.81-.31,4.52-3.28-.31-8.74-.47-13.88-.47-4.68,0-9.36.16-12.17.31v-1.56c0-5.93-3.9-8.89-17.47-8.89s-16.69,2.5-16.69,6.86c0,4.06,2.81,7.49,24.34,9.83,28.71,3.28,37.6,12.32,37.6,29.95s-12.01,29.49-44.3,29.49c-34.95,0-45.4-11.39-45.4-29.33,0-1.25.16-2.81.16-4.21,3.28.31,8.27.62,13.88.62,4.52,0,9.2-.16,12.48-.47v1.56Z"/>
      </g>
    </g>
  </g>
</svg>