<?xml version="1.0" encoding="UTF-8"?>
<svg id="Layer_2" data-name="Layer 2" xmlns="http://www.w3.org/2000/svg" viewBox="0 0 829.06 279.76">
  <g id="Layer_2-2" data-name="Layer 2">
    <g>
      <g>
        <path d="M154.88,39.57l7,4c13.05,8.92,27.78,16.61,41.26,24.96.61.42,1.74,2.04,1.74,2.54v27c0,.26-1.56,1.87-2.39,1.42l-95.95-57.75L27.09,91.28l.81,59.78c6.68,48.17,65.24,86.18,110.66,61.69,16.15-8.71,31.92-20.9,40.83-37.17h27.5c-5.67,23.98-23.87,41.51-44.08,54.42-42.57,27.18-80.45,23.4-120.25-6.58C-19.52,176.64,6.32,106.24.83,39.02c-.22-1.02.72-3.45,1.55-3.45h24c.11,0,1.5,1.39,1.5,1.5v19.5c1.46.26,2.45-.25,3.72-.79,4.63-1.95,15.41-9.14,20.28-12.21l7-4c15.3-10.11,31.76-18.74,47.58-28.02,2.79-.15,42.78,24.42,48.42,28.02Z" style="fill: #0041d9;"/>
        <path d="M161.88,169.57c-37.13,61.74-131.46,24.46-117.72-46.22,11.56-59.49,93.51-71.74,120.47-17.26-.25,3.01-20.1,8.44-23.26,11.25-24.45-40.51-85.1-12.67-69.26,32.51,10.75,30.64,54.34,32.62,68.86,3.77,3.76.82,6.68,3.23,9.91,4.96l6.57,2.69c6.34,1.9,7.81,4.67,4.43,8.31Z" style="fill: #0041d9;"/>
      </g>
      <g>
        <path d="M307.64,56.45c0-13.15-7.4-17.54-21.23-17.54-15.48.14-22.88,6.85-22.88,28.49s7.81,30.28,23.84,30.28c14.25,0,20.55-6.85,20.55-17.26v-2.33c4.38.14,8.63.14,12.88.14s8.9,0,13.43-.14c-.14,1.37,0,2.6,0,3.97,0,23.7-16.17,39.45-46.71,39.45-32.06,0-51.37-16.85-51.37-53.43,0-33.43,17.26-52.61,51.37-52.61s46.3,16.71,46.3,36.58c0,2.05-.14,4.25-.27,6.44-4.38-.14-8.9-.14-13.15-.14s-8.36,0-12.74.14v-2.05Z"/>
        <path d="M348.75,119.88c.41-15.48.41-32.88.41-51.78,0-20.27,0-36.85-.41-54.25h25.62c-.41,16.44-.41,32.06-.41,55.35,0,20.69,0,34.52.41,50.69h-25.62Z"/>
        <path d="M404.91,30.42c-13.01,0-15.07-3.7-15.07-7.81,0-4.38,2.33-7.26,15.07-7.26s14.93,2.88,14.93,7.26c0,4.11-2.06,7.81-14.93,7.81ZM392.17,119.88c.27-13.15.27-26.44.27-43.02,0-15.62-.14-27.26-.27-40h25.34c-.41,12.88-.41,24.25-.41,40.69,0,18.77,0,29.45.41,42.33h-25.34Z"/>
        <path d="M514.92,88.64c0,19.04-8.91,33.02-41.37,33.02-27.26,0-42.61-14.93-42.61-43.43s15.21-43.15,43.15-43.15c25.21,0,40.41,8.63,40.41,33.02v1.37c-2.88-.14-7.4-.27-11.92-.27s-8.49.14-11.23.27v-.55c-.14-9.04-3.97-12.06-17.12-12.06s-19.04,4.93-19.04,21.1c0,16.99,5.34,21.92,19.18,21.92,12.47,0,16.85-4.11,16.99-11.23v-.82c3.15.41,7.26.41,11.37.41,4.38,0,8.9-.14,12.19-.41v.82Z"/>
        <path d="M611.64,36.86c-8.08,10.27-23.56,31.51-33.15,41.92,10.28,10.69,22.33,29.32,34.39,41.1h-26.58c-3.7,0-5.34-.69-6.99-3.01-7.12-9.73-17.12-23.02-25.21-31.1h-.55c0,12.47,0,22.47.27,34.11h-25.62c.27-15.62.27-32.88.27-52.47s.27-36.44-.27-53.56h25.75c-.55,16.71-.41,31.92-.41,55.48v5.75h.27c3.84-4.25,7.81-8.63,11.1-12.74,8.77-10.96,14.38-19.18,18.08-25.48h28.63Z"/>
        <path d="M241.48,246.88c.41-14.93.41-29.59.41-51.37s0-36.58-.41-51.37h27.26c-.41,14.52-.41,29.32-.41,51.24s0,36.44.41,51.51h-27.26Z"/>
        <path d="M391.62,246.88c.41-12.06.55-29.32.55-50,0-9.04-3.84-13.29-12.33-13.29s-16.17,4.79-16.17,17.67c0,24.11-.14,35.62.41,45.62h-24.11c.41-12.06.55-26.17.55-50,0-8.63-3.43-13.29-12.19-13.29s-16.17,4.79-16.17,17.67c0,22.19,0,37.12.27,45.62h-24.38c.41-11.78.27-23.56.27-40.96s0-30-.27-42.06h24.93c-.14,4.79-.27,8.49-.68,13.15l.82.14c4.79-10,12.88-14.52,24.8-14.52s21.37,5.34,24.11,15.21l1.1.14c4.93-11.51,14.93-15.34,26.58-15.34,15.34,0,26.03,8.63,26.03,25.21,0,12.74-.27,21.92-.27,32.33,0,9.18.14,18.77.41,26.71h-24.25Z"/>
        <path d="M471.09,248.66c-27.4,0-43.43-17.26-43.43-44.66s17.26-42.06,43.43-42.06,43.97,14.52,43.97,42.06-16.44,44.66-43.97,44.66ZM503.69,142.08c-7.67,1.64-42.61,11.92-50.55,14.66-1.1-2.88-2.6-5.62-3.84-7.95,6.99-3.29,40.82-19.04,47.4-22.6,1.78,4.52,4.66,11.1,6.99,15.89ZM471.09,183.58c-11.78,0-19.32,5.75-19.32,21.23s7.4,22.33,19.32,22.33,19.32-7.26,19.32-22.33-7.4-21.23-19.32-21.23Z"/>
        <path d="M608.08,163.86c-7.53,21.1-23.84,69.73-28.22,83.02-3.97-.14-8.77-.27-15.75-.27-7.81,0-13.97,0-16.44.27-4.79-13.29-21.1-61.37-28.77-83.02h28.08c1.64,7.53,7.53,26.44,11.51,42.19,2.33,8.36,3.97,15.34,5.21,20.82h1.37c1.1-5.48,2.88-12.47,5.34-20.96,3.97-16.03,9.73-35.34,11.23-42.06h26.44Z"/>
        <path d="M651.92,248.66c-26.44,0-42.33-13.97-42.33-43.15s16.58-43.43,42.88-43.43c27.95,0,37.4,13.84,37.4,34.93,0,6.71-.27,11.51-.55,15.34-7.4-.27-19.86-.27-31.65-.27-9.18,0-18.22.14-24.39.14,1.1,13.84,6.85,18.22,19.04,18.22,11.51,0,14.79-3.56,15.07-10,3.15.27,6.85.41,11.37.41s8.22-.14,11.1-.41c.41,18.08-7.12,28.22-37.95,28.22ZM633.43,199.06c11.23.41,23.43.27,33.56.14.14-1.1.14-2.33.14-3.84,0-10.82-4.38-15.21-15.62-15.21s-16.71,3.84-18.08,18.91Z"/>
        <path d="M718.1,157.42c-13.01,0-15.07-3.7-15.07-7.81,0-4.38,2.33-7.26,15.07-7.26s14.93,2.88,14.93,7.26c0,4.11-2.05,7.81-14.93,7.81ZM705.36,246.88c.27-13.15.27-26.44.27-43.02,0-15.62-.14-27.26-.27-40h25.34c-.41,12.88-.41,24.25-.41,40.69,0,18.77,0,29.45.41,42.33h-25.34Z"/>
        <path d="M767.83,220.71c0,5.34,3.84,8.22,16.85,8.22,11.23,0,14.66-2.19,14.66-6.58,0-4.11-3.42-6.85-20.69-8.36-26.85-2.88-33.84-12.6-33.84-26.58,0-16.85,12.05-25.21,39.18-25.21s38.08,8.49,38.08,24.93c0,1.23-.14,2.47-.27,3.97-2.88-.27-7.67-.41-12.19-.41-4.11,0-8.22.14-10.69.27v-1.37c0-5.21-3.42-7.81-15.34-7.81s-14.66,2.19-14.66,6.03c0,3.56,2.47,6.58,21.37,8.63,25.21,2.88,33.02,10.82,33.02,26.3s-10.55,25.89-38.91,25.89c-30.69,0-39.87-10-39.87-25.75,0-1.1.14-2.47.14-3.7,2.88.27,7.26.55,12.19.55,3.97,0,8.08-.14,10.96-.41v1.37Z"/>
      </g>
    </g>
  </g>
</svg>